<svg width="40" height="40" viewBox="0 0 40 40" fill="none" xmlns="http://www.w3.org/2000/svg">
<circle cx="20" cy="20" r="20" fill="#E64300"/>
<path d="M12.8638 31.3464C10.7278 31.3464 9.02869 30.326 8.44614 27.0219C7.86359 23.7177 5.89135 23.7051 5.1069 21.3581C3.59093 16.8294 10.3918 16.7869 12.8599 17.3741C17.0206 18.3641 22.5473 17.0632 26.337 18.9975C29.9823 20.8584 31.6711 26.66 28.3185 29.6059C26.427 31.2677 24.4746 31.41 21.2839 30.1183C17.5722 28.6159 16.3714 31.3464 12.8638 31.3464Z" fill="white"/>
<path d="M13.999 22.7931C14.2559 21.0888 16.9022 18.7616 20.2231 19.6514C22.1554 20.1692 23.3858 21.4552 22.8718 23.3732C22.2935 25.5315 18.6537 26.3235 16.7887 26.0816C14.8899 25.8354 13.7123 24.6948 13.999 22.7931Z" fill="#E64300"/>
<path d="M21.3639 23.7751C21.143 23.8343 21.2252 22.8546 21.0236 22.1021C20.822 21.3497 19.7252 20.8002 19.946 20.7411C20.1669 20.6819 21.6726 21.0094 21.8742 21.7618C22.0758 22.5143 21.5847 23.716 21.3639 23.7751Z" fill="white"/>
<path d="M21.2788 24.5976C21.2165 24.7333 21.0233 24.783 20.9376 24.7437C20.8519 24.7043 20.833 24.5624 20.8954 24.4266C20.9577 24.2909 21.0778 24.2128 21.1634 24.2522C21.2491 24.2916 21.3412 24.4619 21.2788 24.5976Z" fill="white"/>
<path d="M31.8017 19.0416L31.6199 18.3986L36.4086 17.0443L36.5904 17.6873L31.8017 19.0416Z" fill="#FAFAFA"/>
<path d="M31.8017 19.0416L36.308 16.6888L36.8728 18.6857L31.8017 19.0416Z" fill="#FAFAFA"/>
<path d="M31.6199 18.3986L36.1262 16.0458L36.691 18.0427L31.6199 18.3986Z" fill="#FAFAFA"/>
<path d="M31.4025 20.4027L31.5855 20.0124L34.4923 21.3751L34.3094 21.7654L31.4025 20.4027Z" fill="#FAFAFA"/>
<path d="M31.4025 20.4027L34.5935 21.1593L34.0252 22.3715L31.4025 20.4027Z" fill="#FAFAFA"/>
<path d="M31.5855 20.0124L34.7765 20.769L34.2082 21.9812L31.5855 20.0124Z" fill="#FAFAFA"/>
<path d="M7.97368 15.3249L7.86156 8.52378L9.31101 8.03371L13.3491 13.5074L12.057 13.9443L10.1064 11.0412C9.90422 10.7527 9.70109 10.4522 9.497 10.1397C9.29655 9.81988 9.09432 9.51292 8.89031 9.21888L8.85718 9.23008C8.89189 9.58752 8.92018 9.95328 8.94206 10.3274C8.96947 10.6996 8.99313 11.0608 9.01307 11.4109L9.21607 14.9048L7.97368 15.3249ZM8.65915 13.3395L8.3371 12.387L11.2526 11.4013L11.5746 12.3538L8.65915 13.3395Z" fill="#FAFAFA"/>
<path d="M26.1127 14.7814L31.8207 11.082L33.0044 12.0514L30.5027 18.3766L29.4475 17.5125L30.8755 14.3198C31.0131 13.9954 31.1603 13.6639 31.3171 13.3253C31.4821 12.9858 31.6352 12.6516 31.7764 12.3227L31.7494 12.3006C31.4647 12.5195 31.1695 12.7373 30.8639 12.9541C30.5627 13.1746 30.269 13.3861 29.9827 13.5886L27.1274 15.6124L26.1127 14.7814ZM28.1596 14.3105L28.7966 13.5326L31.1777 15.4826L30.5406 16.2605L28.1596 14.3105Z" fill="#FAFAFA"/>
<path d="M14.5003 13.3088L13.7289 6.87621L15.0397 6.71902L17.3173 9.9242L18.135 11.2351L18.1784 11.2299C18.1034 10.8984 18.0217 10.5354 17.9333 10.1409C17.8449 9.74646 17.7789 9.36692 17.7351 9.00232L17.427 6.43275L18.6423 6.28702L19.4137 12.7196L18.1029 12.8768L15.8416 9.66087L15.025 8.35867L14.9816 8.36387C15.0522 8.70764 15.131 9.07097 15.218 9.45387C15.305 9.83676 15.3707 10.2134 15.4151 10.5838L15.7243 13.162L14.5003 13.3088Z" fill="#FAFAFA"/>
<path d="M20.4848 12.8999L22.7211 6.81938L23.9602 7.27509L24.5324 11.1652L24.6649 12.7045L24.706 12.7196C24.7898 12.3902 24.882 12.0298 24.9826 11.6382C25.0831 11.2467 25.1967 10.8786 25.3235 10.5339L26.2168 8.10502L27.3656 8.52753L25.1293 14.608L23.8902 14.1523L23.3375 10.26L23.2019 8.72894L23.1609 8.71385C23.0675 9.05214 22.9726 9.41159 22.8761 9.7922C22.7796 10.1728 22.6669 10.5382 22.5382 10.8883L21.6419 13.3254L20.4848 12.8999Z" fill="#FAFAFA"/>
</svg>
