<svg width="286" height="94" viewBox="0 0 286 94" fill="none" xmlns="http://www.w3.org/2000/svg">
<rect x="244.253" y="69.074" width="4.5" height="18" transform="rotate(54.4065 244.253 69.074)" fill="#D4D4D4"/>
<circle cx="262" cy="55.9998" r="24" fill="#525252"/>
<circle cx="262" cy="55.9998" r="19.5" fill="#A3A3A3"/>
<rect x="236.517" y="71.75" width="9" height="24" rx="3" transform="rotate(54.41 236.517 71.75)" fill="#C1420E"/>
<circle cx="222.668" cy="87.1943" r="1.5" transform="rotate(54.41 222.668 87.1943)" fill="white"/>
<path d="M270.68 46.1925C273.553 46.7112 275.591 48.4966 275.573 53.0832C275.554 57.6697 278.204 58.1657 278.689 61.5136C279.629 67.9741 270.469 66.3796 267.292 64.9903C261.935 62.6479 254.184 63.0557 249.555 59.5331C245.103 56.1444 244.24 47.9294 249.466 44.7805C252.414 43.0043 255.075 43.2871 259.054 45.7996C263.683 48.7223 265.961 45.3406 270.68 46.1925Z" fill="white"/>
<path d="M267.076 57.4233C266.316 59.6537 262.191 62.1417 257.939 60.1381C255.466 58.9723 254.123 56.9434 255.28 54.4879C256.582 51.7248 261.671 51.5434 264.121 52.3218C266.616 53.1142 267.923 54.9346 267.076 57.4233Z" fill="#E64300"/>
<path d="M257.406 54.3133C257.717 54.2873 257.369 55.5854 257.457 56.6466C257.546 57.7078 258.888 58.7134 258.576 58.7393C258.265 58.7653 256.319 57.959 256.23 56.8978C256.142 55.8366 257.094 54.3393 257.406 54.3133Z" fill="white"/>
<path d="M257.72 53.2277C257.837 53.0603 258.109 53.0403 258.215 53.1141C258.32 53.1879 258.311 53.3834 258.194 53.5508C258.078 53.7183 257.897 53.7942 257.791 53.7204C257.686 53.6466 257.603 53.3952 257.72 53.2277Z" fill="white"/>
<path d="M67.4548 6.192H87.7828V11.592H84.7108V8.88H70.3588V11.592H67.4548V6.192ZM81.2548 10.992L84.8068 11.208C84.4388 13.736 83.8708 15.88 83.1028 17.64C82.3348 19.384 81.3108 20.832 80.0308 21.984C78.7668 23.12 77.2068 24.016 75.3508 24.672C73.5108 25.344 71.3188 25.856 68.7748 26.208C68.6948 25.952 68.5508 25.64 68.3428 25.272C68.1348 24.92 67.9108 24.56 67.6708 24.192C67.4308 23.84 67.2148 23.544 67.0228 23.304C69.4228 23.08 71.4788 22.72 73.1908 22.224C74.9188 21.712 76.3428 20.992 77.4628 20.064C78.5828 19.136 79.4468 17.936 80.0548 16.464C80.6628 14.976 81.0628 13.152 81.2548 10.992ZM66.9988 13.176H88.2388V15.888H66.9988V13.176ZM75.1588 4.104L78.4228 3.36C78.6788 3.888 78.9508 4.48 79.2388 5.136C79.5268 5.776 79.7428 6.32 79.8868 6.768L76.4548 7.632C76.3428 7.168 76.1588 6.608 75.9028 5.952C75.6628 5.28 75.4148 4.664 75.1588 4.104ZM69.7348 18.936L71.6068 16.8C72.9348 17.2 74.3508 17.664 75.8548 18.192C77.3748 18.72 78.8948 19.296 80.4148 19.92C81.9348 20.544 83.3588 21.176 84.6868 21.816C86.0308 22.44 87.1828 23.048 88.1428 23.64L86.0068 26.184C85.1428 25.592 84.0708 24.968 82.7908 24.312C81.5108 23.656 80.1268 23 78.6388 22.344C77.1508 21.672 75.6388 21.048 74.1028 20.472C72.5828 19.88 71.1268 19.368 69.7348 18.936ZM69.7348 18.936C70.1668 18.312 70.6148 17.624 71.0788 16.872C71.5588 16.104 72.0228 15.304 72.4708 14.472C72.9348 13.624 73.3588 12.776 73.7428 11.928C74.1268 11.08 74.4628 10.256 74.7508 9.456L78.0868 10.08C77.7988 10.88 77.4548 11.696 77.0548 12.528C76.6708 13.36 76.2628 14.184 75.8308 15C75.3988 15.8 74.9748 16.56 74.5588 17.28C74.1428 17.984 73.7508 18.616 73.3828 19.176L69.7348 18.936ZM90.6628 4.8H100.359V7.416H90.6628V4.8ZM90.9508 10.32H100.599V12.84H90.9508V10.32ZM90.6628 15.672H100.335V18.192H90.6628V15.672ZM98.8708 4.8H101.775C101.775 4.8 101.775 4.896 101.775 5.088C101.775 5.28 101.767 5.496 101.751 5.736C101.751 5.96 101.751 6.136 101.751 6.264C101.735 8.76 101.719 10.944 101.703 12.816C101.703 14.688 101.687 16.296 101.655 17.64C101.639 18.968 101.607 20.08 101.559 20.976C101.511 21.872 101.439 22.584 101.343 23.112C101.263 23.624 101.151 24 101.007 24.24C100.735 24.704 100.463 25.032 100.191 25.224C99.9188 25.416 99.5828 25.56 99.1828 25.656C98.8148 25.752 98.3748 25.8 97.8628 25.8C97.3668 25.816 96.8468 25.816 96.3028 25.8C96.2868 25.352 96.1988 24.832 96.0388 24.24C95.8788 23.664 95.6788 23.16 95.4388 22.728C95.8708 22.76 96.2708 22.784 96.6388 22.8C97.0228 22.8 97.3268 22.8 97.5508 22.8C97.7428 22.8 97.8948 22.768 98.0068 22.704C98.1188 22.624 98.2228 22.488 98.3188 22.296C98.4308 22.104 98.5188 21.68 98.5828 21.024C98.6628 20.352 98.7188 19.376 98.7508 18.096C98.7988 16.816 98.8228 15.152 98.8228 13.104C98.8388 11.056 98.8548 8.544 98.8708 5.568V4.8ZM93.7828 5.928L96.6628 5.952C96.6468 8.16 96.5828 10.248 96.4708 12.216C96.3588 14.184 96.1588 16.016 95.8708 17.712C95.5828 19.408 95.1668 20.968 94.6228 22.392C94.0948 23.8 93.3828 25.048 92.4868 26.136C92.3588 25.96 92.1508 25.728 91.8628 25.44C91.5748 25.168 91.2708 24.896 90.9508 24.624C90.6468 24.368 90.3828 24.16 90.1588 24C90.9748 23.088 91.6228 22.008 92.1028 20.76C92.5988 19.496 92.9668 18.096 93.2068 16.56C93.4468 15.008 93.5988 13.344 93.6628 11.568C93.7428 9.776 93.7828 7.896 93.7828 5.928ZM103.287 4.752H110.967V7.44H105.999V26.112H103.287V4.752ZM109.863 4.752H110.415L110.847 4.632L112.887 5.928C112.423 7.064 111.919 8.272 111.375 9.552C110.831 10.816 110.295 11.976 109.767 13.032C110.519 13.752 111.087 14.44 111.471 15.096C111.855 15.736 112.119 16.352 112.263 16.944C112.407 17.52 112.479 18.072 112.479 18.6C112.479 19.464 112.359 20.192 112.119 20.784C111.895 21.376 111.543 21.824 111.063 22.128C110.807 22.288 110.535 22.424 110.247 22.536C109.959 22.632 109.647 22.696 109.311 22.728C108.991 22.76 108.623 22.784 108.207 22.8C107.807 22.816 107.407 22.808 107.007 22.776C106.991 22.408 106.911 21.96 106.767 21.432C106.639 20.904 106.455 20.456 106.215 20.088C106.567 20.104 106.887 20.12 107.175 20.136C107.479 20.136 107.743 20.136 107.967 20.136C108.159 20.136 108.351 20.12 108.543 20.088C108.735 20.04 108.919 19.984 109.095 19.92C109.335 19.776 109.503 19.576 109.599 19.32C109.711 19.048 109.767 18.712 109.767 18.312C109.767 17.656 109.567 16.912 109.167 16.08C108.767 15.232 108.023 14.336 106.935 13.392C107.207 12.816 107.479 12.176 107.751 11.472C108.023 10.768 108.287 10.056 108.543 9.336C108.815 8.616 109.063 7.944 109.287 7.32C109.511 6.68 109.703 6.144 109.863 5.712V4.752ZM122.535 3.624H125.463V10.128H122.535V3.624ZM116.991 5.112H130.431V7.44H116.991V5.112ZM114.831 8.856H136.335V11.256H114.831V8.856ZM132.951 4.08L135.303 5.448C134.135 6.776 132.799 8 131.295 9.12C129.807 10.224 128.191 11.224 126.447 12.12C124.719 13 122.919 13.792 121.047 14.496C119.175 15.2 117.295 15.8 115.407 16.296C115.311 16.088 115.175 15.832 114.999 15.528C114.823 15.208 114.639 14.896 114.447 14.592C114.271 14.272 114.103 14.016 113.943 13.824C115.815 13.408 117.663 12.888 119.487 12.264C121.327 11.64 123.071 10.928 124.719 10.128C126.383 9.312 127.911 8.4 129.303 7.392C130.695 6.368 131.911 5.264 132.951 4.08ZM121.527 17.496V18.72H130.743V17.496H121.527ZM121.527 14.472V15.672H130.743V14.472H121.527ZM118.743 12.528H133.647V20.664H118.743V12.528ZM121.335 21.816L124.023 21.552C124.167 22.192 124.287 22.896 124.383 23.664C124.495 24.416 124.559 25.048 124.575 25.56L121.695 25.92C121.711 25.392 121.679 24.744 121.599 23.976C121.535 23.192 121.447 22.472 121.335 21.816ZM126.231 21.768L128.919 21.288C129.207 21.912 129.479 22.592 129.735 23.328C129.991 24.064 130.167 24.688 130.263 25.2L127.407 25.8C127.327 25.272 127.175 24.632 126.951 23.88C126.727 23.112 126.487 22.408 126.231 21.768ZM131.175 21.72L133.743 20.712C134.111 21.128 134.487 21.592 134.871 22.104C135.255 22.616 135.615 23.12 135.951 23.616C136.287 24.096 136.551 24.528 136.743 24.912L134.007 26.04C133.847 25.656 133.607 25.208 133.287 24.696C132.967 24.2 132.623 23.696 132.255 23.184C131.887 22.656 131.527 22.168 131.175 21.72ZM117.351 20.712L120.063 21.456C119.695 22.32 119.223 23.168 118.647 24C118.071 24.816 117.463 25.512 116.823 26.088L114.231 24.768C114.807 24.32 115.383 23.728 115.959 22.992C116.535 22.24 116.999 21.48 117.351 20.712ZM145.42 30.816V3.576H147.724V30.816H145.42ZM157.215 5.52H178.023V10.992H175.071V8.136H160.047V10.992H157.215V5.52ZM160.767 9.456H174.279V11.88H160.767V9.456ZM164.607 13.608L166.815 12.408C167.759 13.176 168.519 14.048 169.095 15.024C169.687 16 170.111 16.992 170.367 18C170.623 19.008 170.735 19.984 170.703 20.928C170.687 21.856 170.551 22.68 170.295 23.4C170.055 24.12 169.719 24.656 169.287 25.008C168.855 25.44 168.423 25.728 167.991 25.872C167.575 26.032 167.055 26.12 166.431 26.136C166.159 26.152 165.855 26.152 165.519 26.136C165.183 26.136 164.831 26.128 164.463 26.112C164.463 25.712 164.399 25.256 164.271 24.744C164.143 24.232 163.943 23.776 163.671 23.376C164.119 23.424 164.527 23.456 164.895 23.472C165.263 23.488 165.591 23.496 165.879 23.496C166.167 23.496 166.407 23.464 166.599 23.4C166.807 23.32 166.999 23.16 167.175 22.92C167.399 22.712 167.575 22.36 167.703 21.864C167.831 21.368 167.879 20.784 167.847 20.112C167.831 19.44 167.711 18.728 167.487 17.976C167.279 17.208 166.943 16.448 166.479 15.696C166.015 14.944 165.391 14.248 164.607 13.608ZM167.199 10.272L169.575 11.28C168.727 12.144 167.703 12.928 166.503 13.632C165.303 14.32 164.023 14.928 162.663 15.456C161.319 15.984 159.983 16.432 158.655 16.8C158.559 16.608 158.423 16.376 158.247 16.104C158.071 15.816 157.887 15.528 157.695 15.24C157.503 14.952 157.327 14.72 157.167 14.544C158.447 14.272 159.727 13.936 161.007 13.536C162.287 13.136 163.463 12.664 164.535 12.12C165.607 11.56 166.495 10.944 167.199 10.272ZM166.215 14.904L168.039 16.248C167.447 16.68 166.767 17.12 165.999 17.568C165.231 18 164.407 18.424 163.527 18.84C162.647 19.24 161.767 19.608 160.887 19.944C160.023 20.28 159.199 20.568 158.415 20.808C158.255 20.488 158.039 20.112 157.767 19.68C157.511 19.248 157.247 18.888 156.975 18.6C157.759 18.44 158.575 18.232 159.423 17.976C160.287 17.704 161.143 17.4 161.991 17.064C162.839 16.712 163.623 16.352 164.343 15.984C165.079 15.616 165.703 15.256 166.215 14.904ZM167.631 17.664L169.599 19.152C168.927 19.744 168.135 20.336 167.223 20.928C166.327 21.504 165.359 22.056 164.319 22.584C163.295 23.096 162.247 23.568 161.175 24C160.119 24.448 159.103 24.824 158.127 25.128C157.967 24.776 157.743 24.368 157.455 23.904C157.183 23.44 156.911 23.056 156.639 22.752C157.615 22.528 158.623 22.24 159.663 21.888C160.703 21.52 161.719 21.112 162.711 20.664C163.703 20.2 164.623 19.712 165.471 19.2C166.335 18.688 167.055 18.176 167.631 17.664ZM173.367 16.272C173.687 17.232 174.111 18.136 174.639 18.984C175.167 19.816 175.799 20.56 176.535 21.216C177.287 21.856 178.127 22.368 179.055 22.752C178.847 22.928 178.623 23.152 178.383 23.424C178.143 23.696 177.911 23.976 177.687 24.264C177.463 24.568 177.287 24.848 177.159 25.104C176.103 24.592 175.167 23.936 174.351 23.136C173.551 22.32 172.855 21.384 172.263 20.328C171.687 19.272 171.207 18.12 170.823 16.872L173.367 16.272ZM174.159 12.264L176.535 14.16C175.815 14.72 175.047 15.288 174.231 15.864C173.415 16.424 172.607 16.96 171.807 17.472C171.007 17.968 170.255 18.408 169.551 18.792L167.703 17.136C168.391 16.736 169.127 16.264 169.911 15.72C170.695 15.16 171.463 14.584 172.215 13.992C172.967 13.384 173.615 12.808 174.159 12.264ZM165.351 4.224L168.399 3.36C168.671 3.792 168.927 4.28 169.167 4.824C169.423 5.368 169.591 5.84 169.671 6.24L166.479 7.224C166.383 6.824 166.231 6.344 166.023 5.784C165.815 5.208 165.591 4.688 165.351 4.224ZM190.911 12.288V13.296H199.143V12.288H190.911ZM190.911 9.816V10.8H199.143V9.816H190.911ZM188.295 8.232H201.903V14.88H188.295V8.232ZM187.311 15.912C188.463 15.912 189.791 15.904 191.295 15.888C192.799 15.856 194.399 15.832 196.095 15.816C197.791 15.784 199.471 15.76 201.135 15.744L201.039 17.688C199.439 17.736 197.823 17.784 196.191 17.832C194.575 17.88 193.023 17.92 191.535 17.952C190.063 17.984 188.727 18.016 187.527 18.048L187.311 15.912ZM197.871 14.976L199.791 13.968C200.191 14.288 200.599 14.656 201.015 15.072C201.447 15.472 201.847 15.872 202.215 16.272C202.583 16.672 202.887 17.04 203.127 17.376L201.063 18.528C200.855 18.192 200.575 17.824 200.223 17.424C199.887 17.008 199.511 16.584 199.095 16.152C198.679 15.72 198.271 15.328 197.871 14.976ZM193.599 3.792H196.407V16.776L193.599 17.064V3.792ZM186.807 18.864H202.839V21.048H186.807V18.864ZM196.983 17.088H199.767V23.52C199.767 24.16 199.687 24.656 199.527 25.008C199.367 25.36 199.055 25.632 198.591 25.824C198.143 26 197.591 26.104 196.935 26.136C196.295 26.168 195.535 26.184 194.655 26.184C194.591 25.832 194.479 25.424 194.319 24.96C194.175 24.512 194.023 24.12 193.863 23.784C194.231 23.8 194.591 23.816 194.943 23.832C195.311 23.832 195.639 23.832 195.927 23.832C196.231 23.832 196.431 23.832 196.527 23.832C196.719 23.816 196.839 23.784 196.887 23.736C196.951 23.672 196.983 23.576 196.983 23.448V17.088ZM188.919 21.792L191.031 20.496C191.575 20.944 192.127 21.472 192.687 22.08C193.263 22.672 193.703 23.2 194.007 23.664L191.751 25.128C191.479 24.664 191.071 24.12 190.527 23.496C189.983 22.856 189.447 22.288 188.919 21.792ZM187.311 5.256H202.599V7.32H187.311V5.256ZM185.247 3.696L187.959 4.56C187.447 5.904 186.839 7.264 186.135 8.64C185.431 10 184.671 11.296 183.855 12.528C183.039 13.744 182.191 14.808 181.311 15.72C181.231 15.48 181.095 15.176 180.903 14.808C180.727 14.424 180.535 14.04 180.327 13.656C180.119 13.272 179.935 12.96 179.775 12.72C180.495 11.984 181.191 11.136 181.863 10.176C182.551 9.216 183.183 8.184 183.759 7.08C184.351 5.976 184.847 4.848 185.247 3.696ZM182.943 10.344L185.679 7.608V7.632V26.112H182.943V10.344ZM214.887 5.088H224.175V7.68H214.887V5.088ZM213.927 13.512H226.839V16.248H213.927V13.512ZM219.015 11.232H222.015V23.04C222.015 23.776 221.919 24.344 221.727 24.744C221.535 25.144 221.191 25.456 220.695 25.68C220.199 25.904 219.607 26.04 218.919 26.088C218.231 26.152 217.415 26.176 216.471 26.16C216.391 25.76 216.255 25.296 216.063 24.768C215.887 24.24 215.695 23.792 215.487 23.424C215.903 23.424 216.311 23.432 216.711 23.448C217.127 23.448 217.495 23.448 217.815 23.448C218.135 23.448 218.359 23.448 218.487 23.448C218.695 23.448 218.831 23.416 218.895 23.352C218.975 23.288 219.015 23.168 219.015 22.992V11.232ZM223.071 5.088H223.839L224.511 4.92L226.455 6.336C225.975 7.072 225.423 7.84 224.799 8.64C224.175 9.44 223.511 10.2 222.807 10.92C222.103 11.64 221.383 12.28 220.647 12.84C220.471 12.6 220.215 12.32 219.879 12C219.543 11.68 219.255 11.424 219.015 11.232C219.559 10.752 220.095 10.184 220.623 9.528C221.151 8.856 221.631 8.184 222.063 7.512C222.495 6.824 222.831 6.216 223.071 5.688V5.088ZM204.711 16.704L206.439 14.688C207.095 15.264 207.807 15.88 208.575 16.536C209.343 17.192 210.111 17.864 210.879 18.552C211.663 19.24 212.391 19.904 213.063 20.544C213.735 21.168 214.287 21.744 214.719 22.272L212.823 24.648C212.407 24.12 211.871 23.528 211.215 22.872C210.575 22.2 209.879 21.504 209.127 20.784C208.375 20.064 207.615 19.352 206.847 18.648C206.095 17.944 205.383 17.296 204.711 16.704ZM204.711 16.704C204.935 15.856 205.159 14.912 205.383 13.872C205.607 12.816 205.815 11.704 206.007 10.536C206.199 9.368 206.359 8.2 206.487 7.032C206.631 5.848 206.743 4.72 206.823 3.648L209.655 3.792C209.559 4.928 209.423 6.112 209.247 7.344C209.071 8.576 208.879 9.8 208.671 11.016C208.463 12.232 208.239 13.408 207.999 14.544C207.775 15.664 207.551 16.68 207.327 17.592L204.711 16.704ZM210.783 7.008H213.471V9.72C213.471 10.648 213.431 11.656 213.351 12.744C213.271 13.832 213.095 14.968 212.823 16.152C212.567 17.336 212.175 18.512 211.647 19.68C211.119 20.848 210.415 21.992 209.535 23.112C208.671 24.216 207.583 25.248 206.271 26.208C206.143 26 205.959 25.768 205.719 25.512C205.479 25.256 205.223 25.008 204.951 24.768C204.695 24.528 204.455 24.336 204.231 24.192C205.431 23.344 206.431 22.432 207.231 21.456C208.031 20.48 208.671 19.472 209.151 18.432C209.631 17.392 209.983 16.36 210.207 15.336C210.447 14.296 210.599 13.296 210.663 12.336C210.743 11.376 210.783 10.496 210.783 9.696V7.008ZM204.231 8.832C205.143 8.8 206.167 8.76 207.303 8.712C208.455 8.648 209.671 8.584 210.951 8.52C212.231 8.44 213.503 8.368 214.767 8.304L214.743 10.896C212.935 11.024 211.127 11.144 209.319 11.256C207.511 11.368 205.903 11.472 204.495 11.568L204.231 8.832ZM228.879 17.424H250.311V19.896H228.879V17.424ZM237.975 15.792H240.999V26.16H237.975V15.792ZM237.231 18.576L239.487 19.56C238.751 20.472 237.871 21.336 236.847 22.152C235.839 22.952 234.751 23.664 233.583 24.288C232.415 24.928 231.231 25.448 230.031 25.848C229.903 25.592 229.727 25.312 229.503 25.008C229.279 24.72 229.047 24.432 228.807 24.144C228.583 23.856 228.359 23.616 228.135 23.424C229.015 23.2 229.895 22.92 230.775 22.584C231.655 22.248 232.495 21.872 233.295 21.456C234.095 21.024 234.831 20.568 235.503 20.088C236.191 19.608 236.767 19.104 237.231 18.576ZM241.863 18.672C242.487 19.344 243.271 19.976 244.215 20.568C245.175 21.16 246.231 21.68 247.383 22.128C248.535 22.576 249.695 22.936 250.863 23.208C250.671 23.4 250.447 23.648 250.191 23.952C249.951 24.24 249.727 24.536 249.519 24.84C249.311 25.144 249.127 25.424 248.967 25.68C247.783 25.296 246.615 24.8 245.463 24.192C244.327 23.6 243.263 22.912 242.271 22.128C241.295 21.328 240.447 20.464 239.727 19.536L241.863 18.672ZM246.903 8.448L249.159 10.656C247.847 10.944 246.415 11.2 244.863 11.424C243.311 11.632 241.695 11.8 240.015 11.928C238.351 12.056 236.679 12.16 234.999 12.24C233.319 12.304 231.679 12.336 230.079 12.336C230.063 12 229.991 11.584 229.863 11.088C229.735 10.592 229.599 10.2 229.455 9.912C231.007 9.896 232.591 9.856 234.207 9.792C235.823 9.712 237.407 9.616 238.959 9.504C240.511 9.376 241.967 9.224 243.327 9.048C244.687 8.872 245.879 8.672 246.903 8.448ZM230.511 13.32L232.911 12.36C233.343 12.872 233.751 13.448 234.135 14.088C234.535 14.728 234.815 15.296 234.975 15.792L232.431 16.824C232.287 16.344 232.031 15.776 231.663 15.12C231.295 14.464 230.911 13.864 230.511 13.32ZM237.207 12.744L239.703 11.928C240.039 12.44 240.343 13 240.615 13.608C240.903 14.2 241.095 14.736 241.191 15.216L238.527 16.104C238.463 15.656 238.303 15.12 238.047 14.496C237.791 13.856 237.511 13.272 237.207 12.744ZM246.255 11.4L249.231 12.432C248.719 13.232 248.191 14.024 247.647 14.808C247.103 15.576 246.615 16.232 246.183 16.776L243.903 15.816C244.175 15.416 244.455 14.96 244.743 14.448C245.047 13.936 245.327 13.416 245.583 12.888C245.855 12.344 246.079 11.848 246.255 11.4ZM228.711 5.016H238.935V7.416H228.711V5.016ZM233.319 3.6H236.079V8.952H233.319V3.6ZM243.111 3.6H245.871V8.616H243.111V3.6ZM239.991 4.992H250.359V7.392H239.991V4.992ZM95.4633 53L101.151 35.216H105.351L111.039 53H107.295L104.775 43.736C104.503 42.808 104.239 41.848 103.983 40.856C103.743 39.848 103.487 38.872 103.215 37.928H103.119C102.895 38.888 102.647 39.864 102.375 40.856C102.119 41.848 101.863 42.808 101.607 43.736L99.0633 53H95.4633ZM98.9913 48.44V45.68H107.439V48.44H98.9913ZM112.83 53V39.56H115.71L115.974 41.336H116.046C116.638 40.76 117.286 40.264 117.99 39.848C118.694 39.432 119.502 39.224 120.414 39.224C121.87 39.224 122.926 39.704 123.582 40.664C124.238 41.608 124.566 42.928 124.566 44.624V53H121.038V45.056C121.038 44.016 120.886 43.288 120.582 42.872C120.294 42.456 119.814 42.248 119.142 42.248C118.598 42.248 118.118 42.376 117.702 42.632C117.302 42.888 116.854 43.264 116.358 43.76V53H112.83ZM128.205 53V39.56H131.085L131.349 41.336H131.421C132.013 40.76 132.661 40.264 133.365 39.848C134.069 39.432 134.877 39.224 135.789 39.224C137.245 39.224 138.301 39.704 138.957 40.664C139.613 41.608 139.941 42.928 139.941 44.624V53H136.413V45.056C136.413 44.016 136.261 43.288 135.957 42.872C135.669 42.456 135.189 42.248 134.517 42.248C133.973 42.248 133.493 42.376 133.077 42.632C132.677 42.888 132.229 43.264 131.733 43.76V53H128.205ZM146.868 53.336C146.084 53.336 145.388 53.168 144.78 52.832C144.188 52.48 143.724 52 143.388 51.392C143.068 50.784 142.908 50.096 142.908 49.328C142.908 47.904 143.524 46.8 144.756 46.016C145.988 45.216 147.948 44.672 150.636 44.384C150.62 43.936 150.54 43.544 150.396 43.208C150.252 42.856 150.012 42.576 149.676 42.368C149.356 42.16 148.916 42.056 148.356 42.056C147.732 42.056 147.116 42.176 146.508 42.416C145.9 42.656 145.284 42.968 144.66 43.352L143.412 41C143.94 40.664 144.5 40.368 145.092 40.112C145.684 39.856 146.308 39.648 146.964 39.488C147.62 39.312 148.3 39.224 149.004 39.224C150.14 39.224 151.092 39.448 151.86 39.896C152.628 40.344 153.204 41.008 153.588 41.888C153.972 42.768 154.164 43.856 154.164 45.152V53H151.284L151.044 51.56H150.924C150.348 52.072 149.724 52.496 149.052 52.832C148.38 53.168 147.652 53.336 146.868 53.336ZM148.044 50.576C148.54 50.576 148.988 50.464 149.388 50.24C149.804 50 150.22 49.672 150.636 49.256V46.568C149.548 46.696 148.684 46.88 148.044 47.12C147.404 47.36 146.948 47.648 146.676 47.984C146.404 48.304 146.268 48.664 146.268 49.064C146.268 49.592 146.428 49.976 146.748 50.216C147.084 50.456 147.516 50.576 148.044 50.576ZM170.71 53.336C169.59 53.336 168.542 53.144 167.566 52.76C166.59 52.36 165.726 51.768 164.974 50.984C164.238 50.2 163.654 49.24 163.222 48.104C162.806 46.968 162.598 45.664 162.598 44.192C162.598 42.72 162.814 41.416 163.246 40.28C163.678 39.128 164.27 38.152 165.022 37.352C165.79 36.552 166.67 35.944 167.662 35.528C168.67 35.112 169.734 34.904 170.854 34.904C171.99 34.904 172.998 35.136 173.878 35.6C174.774 36.048 175.502 36.576 176.062 37.184L174.214 39.44C173.766 38.992 173.27 38.632 172.726 38.36C172.198 38.088 171.598 37.952 170.926 37.952C170.03 37.952 169.222 38.2 168.502 38.696C167.798 39.176 167.246 39.872 166.846 40.784C166.446 41.696 166.246 42.792 166.246 44.072C166.246 45.368 166.43 46.48 166.798 47.408C167.182 48.32 167.718 49.024 168.406 49.52C169.11 50.016 169.926 50.264 170.854 50.264C171.622 50.264 172.302 50.104 172.894 49.784C173.502 49.448 174.038 49.024 174.502 48.512L176.398 50.72C175.662 51.584 174.822 52.24 173.878 52.688C172.934 53.12 171.878 53.336 170.71 53.336ZM184.564 53.336C183.444 53.336 182.388 53.056 181.396 52.496C180.42 51.936 179.628 51.136 179.02 50.096C178.412 49.04 178.108 47.768 178.108 46.28C178.108 44.792 178.412 43.528 179.02 42.488C179.628 41.432 180.42 40.624 181.396 40.064C182.388 39.504 183.444 39.224 184.564 39.224C185.412 39.224 186.22 39.384 186.988 39.704C187.756 40.024 188.444 40.488 189.052 41.096C189.66 41.688 190.14 42.424 190.492 43.304C190.844 44.168 191.02 45.16 191.02 46.28C191.02 47.768 190.716 49.04 190.108 50.096C189.5 51.136 188.7 51.936 187.708 52.496C186.732 53.056 185.684 53.336 184.564 53.336ZM184.564 50.456C185.172 50.456 185.684 50.288 186.1 49.952C186.532 49.6 186.852 49.112 187.06 48.488C187.284 47.864 187.396 47.128 187.396 46.28C187.396 45.432 187.284 44.696 187.06 44.072C186.852 43.448 186.532 42.968 186.1 42.632C185.684 42.28 185.172 42.104 184.564 42.104C183.956 42.104 183.436 42.28 183.004 42.632C182.588 42.968 182.268 43.448 182.044 44.072C181.836 44.696 181.732 45.432 181.732 46.28C181.732 47.128 181.836 47.864 182.044 48.488C182.268 49.112 182.588 49.6 183.004 49.952C183.436 50.288 183.956 50.456 184.564 50.456ZM199.587 53.336C198.467 53.336 197.411 53.056 196.419 52.496C195.443 51.936 194.651 51.136 194.043 50.096C193.435 49.04 193.131 47.768 193.131 46.28C193.131 44.792 193.435 43.528 194.043 42.488C194.651 41.432 195.443 40.624 196.419 40.064C197.411 39.504 198.467 39.224 199.587 39.224C200.435 39.224 201.243 39.384 202.011 39.704C202.779 40.024 203.467 40.488 204.075 41.096C204.683 41.688 205.163 42.424 205.515 43.304C205.867 44.168 206.043 45.16 206.043 46.28C206.043 47.768 205.739 49.04 205.131 50.096C204.523 51.136 203.723 51.936 202.731 52.496C201.755 53.056 200.707 53.336 199.587 53.336ZM199.587 50.456C200.195 50.456 200.707 50.288 201.123 49.952C201.555 49.6 201.875 49.112 202.083 48.488C202.307 47.864 202.419 47.128 202.419 46.28C202.419 45.432 202.307 44.696 202.083 44.072C201.875 43.448 201.555 42.968 201.123 42.632C200.707 42.28 200.195 42.104 199.587 42.104C198.979 42.104 198.459 42.28 198.027 42.632C197.611 42.968 197.291 43.448 197.067 44.072C196.859 44.696 196.755 45.432 196.755 46.28C196.755 47.128 196.859 47.864 197.067 48.488C197.291 49.112 197.611 49.6 198.027 49.952C198.459 50.288 198.979 50.456 199.587 50.456ZM208.994 53V33.848H212.474V45.32H212.57L217.154 39.56H221.018L216.41 45.104L221.45 53H217.61L214.346 47.408L212.474 49.592V53H208.994Z" fill="#FAFAFA"/>
<path d="M14.3548 48.0234C10.51 48.0234 7.45159 46.1866 6.403 40.2392C5.3544 34.2917 1.80438 34.2689 0.392366 30.0443C-2.33638 21.8928 9.90522 21.8163 14.3478 22.8731C21.837 24.6552 31.785 22.3136 38.6065 25.7954C45.168 29.1448 48.2079 39.5877 42.1732 44.8904C38.7685 47.8817 35.2543 48.1378 29.511 45.8128C22.8299 43.1085 20.6686 48.0234 14.3548 48.0234Z" fill="white"/>
<path d="M16.3982 32.6275C16.8606 29.5598 21.624 25.3709 27.6015 26.9725C31.0797 27.9045 33.2944 30.2193 32.3693 33.6718C31.3283 37.5567 24.7767 38.9823 21.4196 38.5469C18.0019 38.1037 15.8822 36.0506 16.3982 32.6275Z" fill="#E64300"/>
<path d="M29.655 34.3954C29.2575 34.5019 29.4055 32.7384 29.0426 31.384C28.6797 30.0296 26.7055 29.0406 27.103 28.9341C27.5005 28.8275 30.2108 29.4171 30.5737 30.7715C30.9366 32.1259 30.0525 34.2889 29.655 34.3954Z" fill="white"/>
<path d="M29.502 35.8755C29.3897 36.1198 29.042 36.2093 28.8877 36.1385C28.7335 36.0676 28.6995 35.8121 28.8118 35.5678C28.924 35.3235 29.14 35.1829 29.2943 35.2538C29.4485 35.3247 29.6143 35.6312 29.502 35.8755Z" fill="white"/>
<path d="M48.443 25.8749L48.1157 24.7175L56.7353 22.2797L57.0627 23.4371L48.443 25.8749Z" fill="#FAFAFA"/>
<path d="M48.443 25.8749L56.5544 21.6399L57.5709 25.2343L48.443 25.8749Z" fill="#FAFAFA"/>
<path d="M48.1157 24.7175L56.2271 20.4825L57.2436 24.077L48.1157 24.7175Z" fill="#FAFAFA"/>
<path d="M47.7246 28.3248L48.0539 27.6223L53.2862 30.0752L52.9569 30.7777L47.7246 28.3248Z" fill="#FAFAFA"/>
<path d="M47.7246 28.3248L53.4683 29.6868L52.4454 31.8687L47.7246 28.3248Z" fill="#FAFAFA"/>
<path d="M48.0539 27.6223L53.7977 28.9842L52.7748 31.1662L48.0539 27.6223Z" fill="#FAFAFA"/>
<path d="M6.06507 20.7004L5.86326 8.45852L8.47227 7.57639L15.7408 17.429L13.415 18.2154L9.90391 12.9899C9.54004 12.4706 9.17441 11.9297 8.80704 11.3672C8.44624 10.7915 8.08223 10.239 7.715 9.70969L7.65536 9.72985C7.71785 10.3732 7.76878 11.0316 7.80816 11.705C7.85749 12.375 7.90009 13.0251 7.93597 13.6553L8.30137 19.9443L6.06507 20.7004ZM7.29891 17.1268L6.71923 15.4123L11.9671 13.638L12.5467 15.3525L7.29891 17.1268Z" fill="#FAFAFA"/>
<path d="M37.1891 19.4443L47.4634 12.7852L49.5942 14.5302L45.0911 25.9156L43.1917 24.3601L45.7622 18.6133C46.0097 18.0295 46.2747 17.4328 46.5569 16.8231C46.854 16.212 47.1296 15.6105 47.3838 15.0186L47.3351 14.9787C46.8226 15.3727 46.2913 15.7648 45.7412 16.1551C45.1991 16.552 44.6704 16.9326 44.155 17.2971L39.0154 20.94L37.1891 19.4443ZM40.8735 18.5966L42.0201 17.1964L46.306 20.7063L45.1593 22.1065L40.8735 18.5966Z" fill="#FAFAFA"/>
<path d="M17.4909 17.1444L16.1024 5.5657L18.4619 5.28276L22.5616 11.0521L24.0333 13.4117L24.1114 13.4023C23.9765 12.8056 23.8295 12.1522 23.6703 11.4422C23.5112 10.7321 23.3923 10.049 23.3136 9.3927L22.759 4.76748L24.9466 4.50515L26.3351 16.0838L23.9756 16.3668L19.9053 10.5781L18.4354 8.23412L18.3573 8.24349C18.4843 8.86228 18.6261 9.51627 18.7828 10.2055C18.9394 10.8947 19.0577 11.5726 19.1376 12.2393L19.6941 16.8802L17.4909 17.1444Z" fill="#FAFAFA"/>
<path d="M27.5203 16.3212L31.5456 5.37635L33.7759 6.19663L34.8058 13.1989L35.0444 15.9696L35.1183 15.9967C35.2693 15.4039 35.4352 14.7551 35.6162 14.0503C35.7971 13.3455 36.0017 12.6829 36.2298 12.0626L37.8378 7.6905L39.9057 8.45102L35.8803 19.3959L33.65 18.5756L32.6551 11.5695L32.411 8.81356L32.3372 8.78639C32.1691 9.39532 31.9982 10.0423 31.8245 10.7274C31.6508 11.4125 31.4481 12.0702 31.2163 12.7004L29.6029 17.0872L27.5203 16.3212Z" fill="#FAFAFA"/>
</svg>
